<svg width="200" height="30" viewBox="0 0 200 30" fill="none" xmlns="http://www.w3.org/2000/svg">
<path d="M12.4315 28.6322C10.0835 28.6322 8.02018 28.2587 6.24143 27.5116C4.46268 26.7289 3.03969 25.6617 1.97244 24.3098C0.90519 22.958 0.264841 21.3927 0.0513916 19.614H6.93514C7.14859 20.6456 7.71779 21.535 8.64274 22.2821C9.60326 22.9936 10.8306 23.3493 12.3247 23.3493C13.8189 23.3493 14.9039 23.0469 15.5799 22.4422C16.2913 21.8374 16.6471 21.1437 16.6471 20.361C16.6471 19.2226 16.149 18.4578 15.153 18.0664C14.1569 17.6395 12.7694 17.2304 10.9907 16.8391C9.85229 16.5901 8.6961 16.2877 7.52213 15.9319C6.34815 15.5762 5.26312 15.1315 4.26702 14.5979C3.3065 14.0287 2.52385 13.3172 1.91908 12.4634C1.3143 11.574 1.01191 10.489 1.01191 9.20826C1.01191 6.86032 1.93686 4.88591 3.78676 3.28504C5.67223 1.68417 8.30478 0.883728 11.6844 0.883728C14.815 0.883728 17.3052 1.61302 19.1551 3.07159C21.0406 4.53016 22.1612 6.54014 22.517 9.10154H16.0601C15.6688 7.14492 14.1924 6.16661 11.631 6.16661C10.3503 6.16661 9.35424 6.41563 8.64274 6.91368C7.96681 7.41173 7.62885 8.03429 7.62885 8.78137C7.62885 9.56401 8.14469 10.1866 9.17636 10.6491C10.208 11.1115 11.5777 11.5384 13.2853 11.9298C15.1352 12.3567 16.825 12.8369 18.3547 13.3706C19.92 13.8686 21.1651 14.6335 22.0901 15.6651C23.015 16.6612 23.4775 18.102 23.4775 19.9875C23.5131 21.6239 23.0862 23.1003 22.1968 24.4166C21.3074 25.7328 20.0267 26.7645 18.3547 27.5116C16.6827 28.2587 14.7083 28.6322 12.4315 28.6322Z" fill="#514D4D"/>
<path d="M35.3769 27.9918L44.9821 14.758L35.3769 1.52411H42.6875L49.4112 10.9159L56.0815 1.52411H63.4455L53.7869 14.758L63.4455 27.9918H56.0815L49.4112 18.6001L42.6875 27.9918H35.3769Z" fill="#514D4D"/>
<path d="M75.8014 28.6322C73.4535 28.6322 71.3901 28.2587 69.6114 27.5116C67.8326 26.7289 66.4096 25.6617 65.3424 24.3098C64.2751 22.958 63.6348 21.3927 63.4213 19.614H70.3051C70.5185 20.6456 71.0877 21.535 72.0127 22.2821C72.9732 22.9936 74.2005 23.3493 75.6947 23.3493C77.1888 23.3493 78.2739 23.0469 78.9498 22.4422C79.6613 21.8374 80.017 21.1437 80.017 20.361C80.017 19.2226 79.519 18.4578 78.5229 18.0664C77.5268 17.6395 76.1394 17.2304 74.3606 16.8391C73.2222 16.5901 72.066 16.2877 70.8921 15.9319C69.7181 15.5762 68.6331 15.1315 67.637 14.5979C66.6764 14.0287 65.8938 13.3172 65.289 12.4634C64.6842 11.574 64.3818 10.489 64.3818 9.20826C64.3818 6.86032 65.3068 4.88591 67.1567 3.28504C69.0422 1.68417 71.6747 0.883728 75.0543 0.883728C78.1849 0.883728 80.6752 1.61302 82.5251 3.07159C84.4105 4.53016 85.5311 6.54014 85.8869 9.10154H79.43C79.0387 7.14492 77.5624 6.16661 75.001 6.16661C73.7203 6.16661 72.7242 6.41563 72.0127 6.91368C71.3368 7.41173 70.9988 8.03429 70.9988 8.78137C70.9988 9.56401 71.5146 10.1866 72.5463 10.6491C73.578 11.1115 74.9476 11.5384 76.6552 11.9298C78.5051 12.3567 80.1949 12.8369 81.7246 13.3706C83.2899 13.8686 84.535 14.6335 85.46 15.6651C86.3849 16.6612 86.8474 18.102 86.8474 19.9875C86.883 21.6239 86.4561 23.1003 85.5667 24.4166C84.6773 25.7328 83.3967 26.7645 81.7246 27.5116C80.0526 28.2587 78.0782 28.6322 75.8014 28.6322Z" fill="#514D4D"/>
<path d="M102.824 28.6322C100.156 28.6322 97.7898 28.063 95.7264 26.9246C93.6631 25.7862 92.0444 24.1853 90.8704 22.122C89.6965 20.0586 89.1095 17.6751 89.1095 14.9714C89.1095 12.2322 89.6787 9.79525 90.8171 7.66076C91.9911 5.52626 93.5919 3.87203 95.6197 2.69805C97.683 1.4885 100.102 0.883728 102.877 0.883728C105.474 0.883728 107.769 1.45293 109.761 2.59133C111.753 3.72972 113.3 5.29502 114.403 7.28722C115.542 9.24384 116.111 11.4317 116.111 13.8508C116.111 14.2421 116.093 14.6512 116.058 15.0781C116.058 15.505 116.04 15.9497 116.004 16.4122H95.8865C96.0288 18.4756 96.7403 20.0942 98.021 21.2682C99.3373 22.4422 100.92 23.0291 102.77 23.0291C104.158 23.0291 105.314 22.7268 106.239 22.122C107.199 21.4816 107.911 20.6634 108.373 19.6673H115.31C114.812 21.3393 113.976 22.8691 112.802 24.2565C111.664 25.6083 110.241 26.6756 108.533 27.4582C106.861 28.2409 104.958 28.6322 102.824 28.6322ZM102.877 6.43342C101.205 6.43342 99.7286 6.91368 98.4479 7.8742C97.1672 8.79915 96.349 10.2222 95.9932 12.1432H109.174C109.067 10.4 108.427 9.0126 107.253 7.98093C106.079 6.94926 104.62 6.43342 102.877 6.43342Z" fill="#514D4D"/>
<path d="M118.921 27.9918V1.52408H124.951L125.484 6.00652C126.303 4.44122 127.476 3.1961 129.006 2.27115C130.572 1.3462 132.404 0.883728 134.503 0.883728C137.775 0.883728 140.319 1.9154 142.133 3.97875C143.948 6.0421 144.855 9.06597 144.855 13.0504V27.9918H138.024V13.6907C138.024 11.4139 137.562 9.67074 136.637 8.46119C135.712 7.25164 134.271 6.64687 132.315 6.64687C130.394 6.64687 128.811 7.32279 127.565 8.67464C126.356 10.0265 125.751 11.912 125.751 14.3311V27.9918H118.921Z" fill="#514D4D"/>
<path d="M159.391 28.6322C157.043 28.6322 154.979 28.2587 153.201 27.5116C151.422 26.7289 149.999 25.6617 148.932 24.3098C147.864 22.958 147.224 21.3927 147.011 19.614H153.894C154.108 20.6456 154.677 21.535 155.602 22.2821C156.562 22.9936 157.79 23.3493 159.284 23.3493C160.778 23.3493 161.863 23.0469 162.539 22.4422C163.251 21.8374 163.606 21.1437 163.606 20.361C163.606 19.2226 163.108 18.4578 162.112 18.0664C161.116 17.6395 159.729 17.2304 157.95 16.8391C156.811 16.5901 155.655 16.2877 154.481 15.9319C153.307 15.5762 152.222 15.1315 151.226 14.5979C150.266 14.0287 149.483 13.3172 148.878 12.4634C148.274 11.574 147.971 10.489 147.971 9.20826C147.971 6.86032 148.896 4.88591 150.746 3.28504C152.631 1.68417 155.264 0.883728 158.644 0.883728C161.774 0.883728 164.264 1.61302 166.114 3.07159C168 4.53016 169.12 6.54014 169.476 9.10154H163.019C162.628 7.14492 161.152 6.16661 158.59 6.16661C157.31 6.16661 156.313 6.41563 155.602 6.91368C154.926 7.41173 154.588 8.03429 154.588 8.78137C154.588 9.56401 155.104 10.1866 156.136 10.6491C157.167 11.1115 158.537 11.5384 160.244 11.9298C162.094 12.3567 163.784 12.8369 165.314 13.3706C166.879 13.8686 168.124 14.6335 169.049 15.6651C169.974 16.6612 170.437 18.102 170.437 19.9875C170.472 21.6239 170.045 23.1003 169.156 24.4166C168.267 25.7328 166.986 26.7645 165.314 27.5116C163.642 28.2587 161.667 28.6322 159.391 28.6322Z" fill="#514D4D"/>
<path d="M186.413 28.6322C183.745 28.6322 181.379 28.063 179.316 26.9246C177.252 25.7862 175.634 24.1853 174.46 22.122C173.286 20.0586 172.699 17.6751 172.699 14.9714C172.699 12.2322 173.268 9.79525 174.406 7.66076C175.58 5.52626 177.181 3.87203 179.209 2.69805C181.272 1.4885 183.691 0.883728 186.466 0.883728C189.063 0.883728 191.358 1.45293 193.35 2.59133C195.342 3.72972 196.89 5.29502 197.993 7.28722C199.131 9.24384 199.7 11.4317 199.7 13.8508C199.7 14.2421 199.682 14.6512 199.647 15.0781C199.647 15.505 199.629 15.9497 199.593 16.4122H179.476C179.618 18.4756 180.33 20.0942 181.61 21.2682C182.927 22.4422 184.51 23.0291 186.36 23.0291C187.747 23.0291 188.903 22.7268 189.828 22.122C190.789 21.4816 191.5 20.6634 191.963 19.6673H198.9C198.402 21.3393 197.566 22.8691 196.392 24.2565C195.253 25.6083 193.83 26.6756 192.123 27.4582C190.451 28.2409 188.547 28.6322 186.413 28.6322ZM186.466 6.43342C184.794 6.43342 183.318 6.91368 182.037 7.8742C180.756 8.79915 179.938 10.2222 179.583 12.1432H192.763C192.656 10.4 192.016 9.0126 190.842 7.98093C189.668 6.94926 188.209 6.43342 186.466 6.43342Z" fill="#514D4D"/>
<path fill-rule="evenodd" clip-rule="evenodd" d="M26.8602 1.52411V27.9918H33.6905V1.52411H26.8602Z" fill="#514D4D"/>
<mask id="mask0" mask-type="alpha" maskUnits="userSpaceOnUse" x="0" y="0" width="171" height="29">
<path d="M12.4315 28.6321C10.0835 28.6321 8.02018 28.2586 6.24143 27.5115C4.46268 26.7289 3.03969 25.6616 1.97244 24.3098C0.90519 22.9579 0.264841 21.3926 0.0513916 19.6139H6.93514C7.14859 20.6456 7.71779 21.5349 8.64274 22.282C9.60326 22.9935 10.8306 23.3493 12.3247 23.3493C13.8189 23.3493 14.9039 23.0469 15.5798 22.4421C16.2913 21.8373 16.6471 21.1436 16.6471 20.361C16.6471 19.2226 16.149 18.4577 15.1529 18.0664C14.1569 17.6395 12.7694 17.2304 10.9907 16.839C9.85228 16.59 8.6961 16.2876 7.52213 15.9319C6.34815 15.5761 5.26312 15.1314 4.26702 14.5978C3.3065 14.0286 2.52385 13.3171 1.91908 12.4633C1.3143 11.574 1.01191 10.4889 1.01191 9.2082C1.01191 6.86026 1.93686 4.88585 3.78676 3.28498C5.67223 1.68411 8.30478 0.883667 11.6844 0.883667C14.815 0.883667 17.3052 1.61296 19.1551 3.07153C21.0406 4.5301 22.1612 6.54008 22.517 9.10148H16.0601C15.6688 7.14486 14.1924 6.16655 11.631 6.16655C10.3503 6.16655 9.35424 6.41557 8.64274 6.91362C7.96681 7.41167 7.62885 8.03423 7.62885 8.78131C7.62885 9.56395 8.14469 10.1865 9.17636 10.649C10.208 11.1115 11.5777 11.5384 13.2853 11.9297C15.1352 12.3566 16.825 12.8369 18.3547 13.3705C19.92 13.8685 21.1651 14.6334 22.0901 15.6651C23.015 16.6612 23.4775 18.102 23.4775 19.9874C23.5131 21.6239 23.0862 23.1002 22.1968 24.4165C21.3074 25.7328 20.0267 26.7645 18.3547 27.5115C16.6827 28.2586 14.7083 28.6321 12.4315 28.6321Z" fill="#514D4D"/>
<path d="M35.3769 27.9917L44.9821 14.7578L35.3769 1.52399H42.6875L49.4112 10.9157L56.0815 1.52399H63.4455L53.7869 14.7578L63.4455 27.9917H56.0815L49.4112 18.5999L42.6875 27.9917H35.3769Z" fill="#514D4D"/>
<path d="M118.921 27.9918V1.52402H124.951L125.484 6.00646C126.302 4.44116 127.476 3.19604 129.006 2.27109C130.571 1.34614 132.404 0.883667 134.503 0.883667C137.775 0.883667 140.319 1.91534 142.133 3.97869C143.948 6.04203 144.855 9.0659 144.855 13.0503V27.9918H138.024V13.6907C138.024 11.4139 137.562 9.67068 136.637 8.46113C135.712 7.25158 134.271 6.64681 132.315 6.64681C130.394 6.64681 128.811 7.32273 127.565 8.67458C126.356 10.0264 125.751 11.9119 125.751 14.331V27.9918H118.921Z" fill="#514D4D"/>
<path d="M159.391 28.6321C157.043 28.6321 154.979 28.2586 153.201 27.5115C151.422 26.7289 149.999 25.6616 148.932 24.3098C147.864 22.9579 147.224 21.3926 147.011 19.6139H153.894C154.108 20.6456 154.677 21.5349 155.602 22.282C156.562 22.9935 157.79 23.3493 159.284 23.3493C160.778 23.3493 161.863 23.0469 162.539 22.4421C163.251 21.8373 163.606 21.1436 163.606 20.361C163.606 19.2226 163.108 18.4577 162.112 18.0664C161.116 17.6395 159.729 17.2304 157.95 16.839C156.811 16.59 155.655 16.2876 154.481 15.9319C153.307 15.5761 152.222 15.1314 151.226 14.5978C150.266 14.0286 149.483 13.3171 148.878 12.4633C148.273 11.574 147.971 10.4889 147.971 9.2082C147.971 6.86026 148.896 4.88585 150.746 3.28498C152.631 1.68411 155.264 0.883667 158.644 0.883667C161.774 0.883667 164.264 1.61296 166.114 3.07153C168 4.5301 169.12 6.54008 169.476 9.10148H163.019C162.628 7.14486 161.152 6.16655 158.59 6.16655C157.31 6.16655 156.313 6.41557 155.602 6.91362C154.926 7.41167 154.588 8.03423 154.588 8.78131C154.588 9.56395 155.104 10.1865 156.136 10.649C157.167 11.1115 158.537 11.5384 160.244 11.9297C162.094 12.3566 163.784 12.8369 165.314 13.3705C166.879 13.8685 168.124 14.6334 169.049 15.6651C169.974 16.6612 170.437 18.102 170.437 19.9874C170.472 21.6239 170.045 23.1002 169.156 24.4165C168.267 25.7328 166.986 26.7645 165.314 27.5115C163.642 28.2586 161.667 28.6321 159.391 28.6321Z" fill="#514D4D"/>
<path fill-rule="evenodd" clip-rule="evenodd" d="M26.8602 1.52399V27.9917H33.6905V1.52399H26.8602Z" fill="#514D4D"/>
</mask>
<g mask="url(#mask0)">
<path d="M145.117 68.7548C162.82 68.7548 177.171 54.4035 177.171 36.7002C177.171 18.997 162.82 4.64575 145.117 4.64575C127.414 4.64575 113.062 18.997 113.062 36.7002C113.062 54.4035 127.414 68.7548 145.117 68.7548Z" fill="#45AAF2"/>
<path d="M33.9455 23.3596C51.6487 23.3596 66 9.00832 66 -8.69489C66 -26.3981 51.6487 -40.7494 33.9455 -40.7494C16.2423 -40.7494 1.89099 -26.3981 1.89099 -8.69489C1.89099 9.00832 16.2423 23.3596 33.9455 23.3596Z" fill="#45AAF2"/>
</g>
</svg>
